<?xml version="1.0" encoding="utf-8"?>
<!-- Generator: Adobe Illustrator 24.0.1, SVG Export Plug-In . SVG Version: 6.00 Build 0)  -->
<svg version="1.1" id="chili_2_" xmlns="http://www.w3.org/2000/svg" xmlns:xlink="http://www.w3.org/1999/xlink" x="0px" y="0px"
	 viewBox="0 0 64 64" style="enable-background:new 0 0 64 64;" xml:space="preserve">
<style type="text/css">
	.st0{fill:#FF6699;}
</style>
<g>
	<g id="Group_1747" transform="translate(0)">
		<g id="Group_1746">
			<path id="Path_1014" class="st0" d="M50,23.5h-4.5V13.2C45.3,5.8,39.2-0.2,31.7,0c-7.2,0.2-13.1,6-13.2,13.2v10.3H14
				c-4.1,0-7.5,3.4-7.5,7.5v25.5c0,4.1,3.4,7.5,7.5,7.5h36c4.1,0,7.5-3.4,7.5-7.5V31C57.5,26.9,54.1,23.5,50,23.5z M23.5,13.2
				c0.3-4.7,4.3-8.3,9-8c4.3,0.2,7.8,3.7,8,8v10.3h-17V13.2z M52.5,56.5c0,1.4-1.1,2.5-2.5,2.5H14c-1.4,0-2.5-1.1-2.5-2.5V31
				c0-1.4,1.1-2.5,2.5-2.5h36c1.4,0,2.5,1.1,2.5,2.5V56.5z"/>
		</g>
	</g>
	<g id="Group_1749" transform="translate(13.488 23.099)">
		<g id="Group_1748">
			<path id="Path_1015" class="st0" d="M18.5,12.6c-2.6,0-4.6,2.1-4.6,4.6c0,1.6,0.8,3,2.1,3.9v5.5c0,1.4,1.1,2.5,2.5,2.5
				c1.4,0,2.5-1.1,2.5-2.5v-5.5c2.1-1.4,2.8-4.2,1.4-6.4C21.5,13.4,20.1,12.7,18.5,12.6L18.5,12.6z"/>
		</g>
	</g>
</g>
</svg>
