<?xml version="1.0" standalone="no"?>
<!DOCTYPE svg PUBLIC "-//W3C//DTD SVG 20010904//EN"
 "http://www.w3.org/TR/2001/REC-SVG-20010904/DTD/svg10.dtd">
<svg version="1.0" xmlns="http://www.w3.org/2000/svg"
 width="700.000000pt" height="700.000000pt" viewBox="0 0 700.000000 700.000000"
 preserveAspectRatio="xMidYMid meet">
<metadata>
Created by potrace 1.11, written by Peter Selinger 2001-2013
</metadata>
<g transform="translate(0.000000,700.000000) scale(0.100000,-0.100000)"
fill="#000000" stroke="none">
<path d="M5237 6004 c-1 -1 -33 -5 -72 -8 -221 -21 -521 -117 -684 -220 -39
-25 -41 -29 -28 -44 30 -34 133 -206 200 -332 22 -41 43 -78 47 -83 3 -4 44
12 91 36 80 41 212 90 275 101 16 3 40 8 54 11 85 18 247 24 350 12 260 -29
539 -165 703 -342 330 -356 402 -872 184 -1310 -78 -157 -97 -177 -1126 -1206
-931 -931 -1001 -998 -1069 -1033 -171 -88 -368 -80 -522 21 -30 20 -142 123
-249 230 -106 106 -199 193 -205 193 -6 0 -27 -5 -46 -10 -29 -9 -113 -28
-195 -46 -20 -4 -72 -12 -127 -19 -48 -7 -218 -19 -255 -19 -18 0 -33 0 -33
-1 0 -12 696 -691 749 -731 118 -88 308 -170 441 -190 19 -2 51 -7 70 -10 19
-2 71 -5 115 -5 233 1 445 72 635 213 65 48 1993 1966 2053 2043 18 22 40 49
50 60 27 29 121 172 154 235 131 246 201 527 197 795 -2 162 -12 247 -50 405
-82 339 -297 676 -569 890 -255 202 -557 324 -880 356 -61 6 -254 12 -258 8z"/>
<path d="M2508 5985 c-2 -1 -48 -5 -103 -9 -134 -9 -151 -11 -291 -46 -317
-79 -567 -227 -805 -478 -202 -213 -340 -458 -409 -728 -44 -171 -58 -418 -36
-604 29 -232 116 -472 247 -679 l47 -75 -553 -552 c-416 -416 -559 -565 -576
-601 -45 -94 -23 -236 48 -307 73 -74 213 -91 318 -39 17 8 274 258 572 556
l542 541 28 -20 c239 -177 532 -293 809 -320 184 -18 282 -10 465 36 209 54
435 154 619 274 402 264 641 607 742 1066 18 80 21 128 21 305 0 187 -3 222
-25 320 -37 161 -80 300 -119 380 -30 63 -122 212 -138 225 -4 3 -26 34 -50
70 -219 326 -634 590 -1031 655 -25 4 -54 9 -65 11 -11 2 -60 7 -110 10 -49 3
-102 7 -117 9 -15 2 -28 2 -30 0z m295 -538 c142 -38 304 -118 407 -202 137
-112 237 -234 308 -375 86 -169 122 -326 123 -537 1 -89 -8 -209 -17 -224 -2
-3 -6 -21 -9 -40 -24 -145 -127 -335 -257 -478 -300 -328 -828 -462 -1241
-314 -322 114 -593 408 -692 748 -35 123 -49 242 -41 375 7 139 8 147 35 243
92 336 336 622 638 747 162 68 282 88 493 85 129 -2 172 -7 253 -28z"/>
</g>
</svg>
