<?xml version="1.0" encoding="utf-8"?>
<!-- Generator: Adobe Illustrator 24.0.1, SVG Export Plug-In . SVG Version: 6.00 Build 0)  -->
<svg version="1.1" id="chili_2_" xmlns="http://www.w3.org/2000/svg" xmlns:xlink="http://www.w3.org/1999/xlink" x="0px" y="0px"
	 viewBox="0 0 64 64" style="enable-background:new 0 0 64 64;" xml:space="preserve">
<style type="text/css">
	.st0{fill:#000000;}
</style>
<g>
	<path id="Path_1008" class="st0" d="M59.6,13.6c-5.1-5.1-12.9-5.9-19-2.2c0.9,1.3,1.7,2.7,2.4,4.1c4.2-2.6,9.6-2.1,13.2,1.3
		c4.1,4.1,4.1,10.8,0,14.9L39.3,48.6c-1.9,1.9-4.9,2-6.8,0.1c0,0-0.1-0.1-0.1-0.1l-3.2-3.2c-2,0.6-4,0.9-6.1,0.9l5.8,5.8
		c3.8,3.7,9.8,3.7,13.6,0l16.9-16.9C65.4,29.3,65.5,19.7,59.6,13.6z"/>
	<path id="Path_1009" class="st0" d="M33.9,35.2c2.9-2.8,4.6-6.7,4.5-10.8c0-1.3-0.2-2.6-0.6-3.9c-0.4-1.7-1.1-3.2-2.2-4.5
		c-0.5-0.8-1-1.5-1.7-2.2c-2.9-2.9-6.7-4.5-10.8-4.5c-4.1,0-8,1.6-10.8,4.5c-2.9,2.8-4.6,6.7-4.5,10.8c0,3.1,1,6.1,2.8,8.6l-9.9,9.9
		c-0.9,1-0.9,2.5,0,3.5c0.5,0.4,1.1,0.7,1.7,0.6c0.6,0,1.3-0.2,1.7-0.6l9.7-9.7l0,0c2.7,2.1,5.9,3.2,9.3,3.2h0.4
		C27.4,39.6,31,37.9,33.9,35.2z M15.6,16.9c1.9-2,4.6-3,7.3-3c2.8-0.1,5.4,1,7.4,3c2,1.9,3,4.6,3,7.4c0.1,2.8-1,5.4-3,7.3
		c-2,1.9-4.6,2.9-7.4,3c-2.8,0.1-5.4-1-7.3-3c-1.9-1.9-3-4.6-3-7.3C12.6,21.5,13.7,18.9,15.6,16.9z"/>
</g>
</svg>
